<?xml version="1.0" encoding="UTF-8" standalone="no"?>
<!-- Created with Inkscape (http://www.inkscape.org/) -->

<svg
   version="1.1"
   id="svg1"
   width="666.66669"
   height="666.66669"
   viewBox="0 0 666.66669 666.66669"
   sodipodi:docname="7443559.eps"
   xmlns:inkscape="http://www.inkscape.org/namespaces/inkscape"
   xmlns:sodipodi="http://sodipodi.sourceforge.net/DTD/sodipodi-0.dtd"
   xmlns="http://www.w3.org/2000/svg"
   xmlns:svg="http://www.w3.org/2000/svg">
  <defs
     id="defs1" />
  <sodipodi:namedview
     id="namedview1"
     pagecolor="#ffffff"
     bordercolor="#000000"
     borderopacity="0.25"
     inkscape:showpageshadow="2"
     inkscape:pageopacity="0.0"
     inkscape:pagecheckerboard="0"
     inkscape:deskcolor="#d1d1d1">
    <inkscape:page
       x="0"
       y="0"
       inkscape:label="1"
       id="page1"
       width="666.66669"
       height="666.66669"
       margin="0"
       bleed="0" />
  </sodipodi:namedview>
  <g
     id="g1"
     inkscape:groupmode="layer"
     inkscape:label="1">
    <g
       id="group-R5">
      <path
         id="path3"
         d="m 1154.14,3830.63 c 0.37,-0.86 0.71,-1.72 1.07,-2.58 0.13,-0.52 0.23,-1.05 0.36,-1.57 -0.49,1.38 -0.9,2.79 -1.43,4.15 z m 35.22,90.39 c -6,5.51 -12.43,11 -15.77,18.43 -2.56,5.71 -3.07,12.1 -3.54,18.35 -1.88,24.91 1.21,56.43 -7.28,80.09 -3.05,8.51 -8.44,15.96 -13.9,23.17 -18.94,25.04 -41.26,50.08 -71.42,58.82 -27.46,7.94 -56.82,1.03 -85.38,2.39 -6.164,0.28 -12.468,1.01 -17.976,3.79 -17.746,8.96 -98.961,114.96 -89.36,130.46 -3.496,-5.64 -6.988,-11.28 -10.48,-16.92 -9.203,42.77 -22.734,84.6 -40.324,124.65 -1.805,-14.78 -5.52,-29.33 -11.02,-43.17 5.883,38.76 -4.82,78.59 -22.863,113.4 -18.039,34.81 -43.117,65.39 -68.004,95.68 -18.008,21.91 -41.145,31.75 -51.273,58.47 -10.684,28.17 -15.743,55.42 -33.77,80.62 -4.738,3.59 -13.461,7.24 -18.832,6.4 -4.301,-8.52 -3.824,-18.68 -2.742,-28.52 1.551,-10.77 3.691,-20.89 6.582,-30.17 1.617,-7.03 6.453,-17.53 13.164,-26.59 -16.57,0.46 -27.567,-2.8 -36.559,-6.53 -4.062,4.05 -8.136,8.09 -12.234,12.12 l -30.188,55.56 c -4.046,5.13 -9.089,8.82 -14.808,11.52 -2.363,-6.68 -3.906,-13.4 -4.25,-20.15 -23.102,21.3 -46.637,42.14 -70.629,62.43 19.613,-30.67 41.012,-60.19 64.051,-88.38 3.328,-4.07 6.687,-8.12 10.05,-12.18 0.27,-0.86 0.458,-1.81 0.778,-2.6 5.191,-13.42 11.09,-25.9 19.176,-35.46 -15.973,-17.17 -30.024,-34.09 -41.118,-50.65 3.981,-12.09 3.336,-23.09 0,-33.46 -13.55,-24.65 -25.804,-53.36 -37.293,-84.46 -5.593,-12.75 -5.753,-30.61 -4.39,-49.92 2.25,-5.35 5.414,-8.88 9.851,-9.87 3.313,-0.73 7.504,-31.3 16.786,-35.7 12.433,-5.88 39.597,4.99 52.523,7.4 2.02,0.37 4.148,0.8 5.676,2.17 1.953,1.76 2.422,4.58 3.008,7.14 9.5,41.66 70.285,60.19 102.836,79.34 -10.657,-10.26 -21.317,-20.53 -31.973,-30.8 -1.961,-1.88 -3.969,-3.84 -5.063,-6.33 -6.457,-14.75 11.903,-64.99 13.946,-82.9 3.539,-31.07 6.07,-62.27 8.015,-93.48 0.453,-7.27 6.746,-116.41 0.457,-116.14 -21.773,-38.9 -33.074,-77.88 -33.093,-112.62 3.105,-22.53 12.929,-53.03 24.316,-85.38 -1.012,-31.67 -2.875,-66.02 2.477,-77.68 15.57,-28.35 26.222,-55.03 30.98,-79.73 l 6.582,-47.72 3.293,-49.91 c 1.184,-11.73 4.441,-18.85 8.773,-23.59 3.903,-39.61 6.442,-76.42 2.196,-99.27 -5.739,-4.59 -8.535,-10.04 -9.875,-15.91 l -3.289,-52.1 c -2.227,-14.98 -5.84,-28.61 -15.492,-36.38 -11.704,-15.39 -19.379,-32.63 -20.161,-53.02 19.2,-2.73 47.02,-1.68 76.239,0 l 5.484,43.88 c -0.996,4.02 -3.773,7.58 -9.324,10.42 0.672,18.46 7.625,34.09 20.297,47.17 6.101,8.53 4.148,24.62 0,42.78 l -9.875,7.13 0.547,83.36 c 9.132,10.15 15.39,27.31 15.359,59.79 l -9.871,20.84 9.871,122.31 c -0.063,10.68 2.785,20 12.066,26.33 17.848,10.55 33.832,9.93 48.266,0 11.996,-20.91 17.801,-41.75 18.648,-62.53 v -18.65 l 5.485,-24.68 v -49.91 c -11.43,-9.87 -14.645,-25.68 -11.52,-46.07 3.207,-14.31 9.285,-23.66 17.004,-30.17 5.672,-31.63 6.031,-59.83 0,-83.91 -11.738,-4.28 -20.019,-43.88 -15.355,-49.37 l 7.675,-21.94 c -7.253,-16.65 -14.609,-32.48 -23.035,-39.49 -7.398,-11.64 -13.133,-33.26 -17.55,-51.83 l 71.851,-1.37 c 6.66,0.71 10.594,2.87 12.613,6.04 1.512,13.05 2.149,25.96 0,38.39 -9.601,7.23 -15.234,15.07 -16.453,23.58 l 2.196,12.62 c 16.39,5.65 24.07,19.73 22.484,42.78 l -7.676,31.81 3.289,67.46 c 3.922,13.08 8.356,25.04 15.906,30.17 4.489,14.6 4.286,30.37 0,47.17 l -9.324,25.23 c -2.437,11.81 -2.984,23.18 -1.097,34 10.105,6.06 16.203,13.36 16.457,22.51 -0.262,35.17 -9.684,108.03 18.582,133.14 8.722,7.75 18.945,15.22 22.062,26.46 -5.082,-18.77 -15.715,-36.01 -30.219,-48.97 -0.699,-0.62 33.879,-12.97 38.563,-13.42 19.574,-1.89 43.558,1.39 62.818,5.34 -15.79,-3.48 -30.978,-9.67 -44.701,-18.21 -25.07,-15.61 31.031,-103.64 41.491,-119.46 4.3,-54.58 5.95,-104.26 0,-139.86 -10.73,-18.08 -11.21,-35.13 0,-51.01 -13.96,-15.49 -23.913,-37.16 -31.811,-61.98 l 0.547,-6.58 46.254,0.91 c 16.64,0.42 25.67,8.3 31.08,19.75 l -8.23,18.83 -12.24,16.27 1.82,7.31 c 9.45,-0.75 16.53,5.33 20.85,19.38 2.03,16.6 -4.46,28.73 -14.27,39.13 l 4.03,69.47 c 2.13,9.81 6.31,19.67 13.53,29.62 1.11,18.67 0.5,37.29 -5.49,55.76 l -15.36,22.49 c -2.36,1.92 1.65,112.44 16.46,127.24 6.67,-15.88 16.95,-29.39 30.71,-40.58 5.52,-31.41 12.59,-58.9 21.58,-81.54 l 5.48,-48.63 c -3.02,-16.91 1.75,-31.3 8.78,-44.98 3.64,-37.59 6.36,-73.16 1.83,-92.87 -4.94,-5.04 -9.21,-11.12 -12.8,-18.29 -1.02,-7.46 -0.94,-15.29 0,-23.4 l 9.14,-13.53 -2.2,-11.7 -13.89,-18.65 -7.68,-34.73 c 19.48,-7.81 43.33,-8.63 66.96,-3.44 l -6.76,38.58 -2.43,13.12 c 10.11,3.08 14.09,11.49 15.73,21.94 -11.19,44.43 -11.92,90.76 -4.39,138.58 12.24,17.72 14.48,37.36 4.02,59.42 -19.08,40.25 -11.24,90.06 -20.24,134.71 11.45,-37.97 28.52,-75.81 34.59,-112.31 4.73,-28.38 24.61,-51.51 43.69,-73.03 -2.23,19.03 -4.46,38.06 -6.69,57.09 9.65,-24.54 13.66,-51.27 11.62,-77.56 4.89,19.68 6.61,40.15 5.07,60.37 6.45,-14.08 9.62,-29.64 9.19,-45.12 7.39,33.25 8.2,67.95 2.39,101.52 7.33,-15.25 11.65,-31.95 12.63,-48.84 2.64,91.01 -14.33,187.81 -83.92,251.7"
         style="fill:#000000;fill-opacity:1;fill-rule:nonzero;stroke:none"
         transform="matrix(0.13333333,0,0,-0.13333333,0,666.66667)" />
      <path
         id="path4"
         d="m 3011.59,3776.82 c 26.22,-5.16 52.74,-8.78 79.39,-10.82 -18.85,1.83 -37.14,9.13 -52.07,20.79 27.68,-11.89 59.14,-14.8 88.54,-8.2 -27.65,2.88 -55.67,7.79 -80.17,20.93 -24.49,13.14 -45.21,35.74 -50.1,63.11 27.31,-15.81 51.19,-37.52 69.53,-63.2 -1.2,63.66 -79.39,100.97 -92.58,163.27 12.87,-15.4 25.73,-30.79 38.59,-46.19 -27.45,50.63 -54.91,101.26 -82.37,151.9 -10.69,19.72 -22.37,40.46 -41.93,51.45 -20.6,11.57 -42.76,20.66 -61.2,35.79 -19.83,16.27 -36.09,36.59 -57.56,50.92 -49.17,32.81 -113.58,27.03 -172.27,19.98 -38,-2.37 -74.57,-13.03 -112.88,-12.07 -15.42,0.39 -29.6,1.3 -43.05,3.37 -28.72,4.44 -54.05,14.22 -80.79,35.69 6.49,5.78 12.98,11.57 19.47,17.35 -11.37,2.02 -22.21,6.92 -31.24,14.11 4.74,5.03 11.37,8.24 18.25,8.84 -25.3,2.19 -45.2,21.68 -62.78,40.01 -20.47,21.35 -103.8,50.94 -124.27,72.28 -5.44,5.67 -41.46,3 -40.11,10.75 -11.01,5.95 -22.02,11.89 -33.03,17.83 4.47,3.06 10.39,3.88 15.53,2.18 -4.34,4.47 -27.13,20.84 -50.76,35.04 0.39,2.98 0.71,5.96 0.92,8.95 -26.12,14.96 -50.91,25.54 -53.08,14.52 4.04,20.53 -9.6,41.51 -19.97,58.6 -8.36,-13.34 -5.28,-57.11 -19.17,-45.86 -4.25,3.45 -24.61,1.74 -36.36,-0.85 23.32,-4.55 17.52,-6.75 20.22,-13.7 -6.02,-1.38 -20.31,2.87 -26.84,22.2 -2.79,-17.95 3.03,-22.52 13.64,-32.92 1.16,-2.05 0.53,-3.39 -1.07,-4.33 -32.7,30.55 -64.61,61.98 -96.45,93.45 23.61,-33.67 47.22,-67.33 70.83,-101 l -55.3,-29.23 c -24.29,-11.67 -47.39,-23 -63.41,-32.63 l -37.98,-29.6 c -10.3,-11.79 -12.17,-25.29 -9.46,-39.78 3.06,-12.87 13.64,-22.07 30.31,-37.11 7.43,-5.07 15.28,-4.59 23.22,-1.91 5.7,1.94 8.82,12.73 13.98,15.87 7.09,4.31 27.19,7.02 36.52,6.83 45.87,-0.89 108.08,-23.3 147.64,9.49 -6.59,-14.12 -20.65,-24.85 -36.27,-26.17 33.11,2.79 61.52,-75.47 71.54,-98.75 17.48,-40.63 37.47,-91.15 33.57,-135.83 -1.88,-21.56 -1.54,-42.3 -0.13,-64.12 1.56,-24.16 11.09,-50.52 11.09,-74.03 l -11.95,-47.12 -9.56,-49.04 c 0,-19.35 -8.93,-35.85 -0.26,-55.36 8.12,-18.3 22.38,-14.24 36.36,-25.98 11.03,22.52 18.29,47.74 24.04,72.11 -0.8,-23.07 -1.83,-47.09 -12.81,-67.4 -1.29,-2.39 -2.74,-4.79 -3.02,-7.49 -0.22,-2.03 0.24,-4.06 0.7,-6.05 10.81,-46.74 7.44,-101.45 -12.8,-145.24 -0.06,-0.13 -22.08,-47.79 -22.08,-47.79 -13.57,-0.19 -21.5,-13.29 -28.38,-28.68 l 58.78,-15.1 c 3.92,8.32 8.22,15.96 15.01,19.6 3.82,5.83 2.1,12.8 -1.73,20.35 -1.24,9.09 3.16,17.3 10.71,25.05 l 19.12,5.16 -4.5,50.27 15.2,65.57 32.31,-54.96 8.41,-23.89 v -82.49 l 33.45,8.41 v 11.95 l 39.38,21.51 -20.26,35.84 -17.97,13.09 7.17,23.9 -71.69,109.92 c 0,0 17.36,105.6 17.86,108.7 2.2,13.38 38.89,40.19 48.77,49.99 -7.39,-7.33 -13.17,-29.29 -16.16,-39.12 27.24,0.33 54.63,-12.35 83.29,-13.75 34.67,-1.69 69.47,-0.01 103.86,4.65 47.46,6.43 94.05,18.55 139.02,34.94 12.93,4.71 32.37,8.82 41.2,20.48 11,14.53 9.65,42.85 12.23,60.12 -0.98,-19.51 8.56,-37.97 11.05,-57.35 5,-38.88 12.31,-73.48 30.76,-108.83 -7.26,-28.01 -9.08,-56.97 -6.59,-86.88 -19.98,-37.95 -45.12,-75.51 -74.65,-112.69 -11.57,-27.91 -20.93,-55.25 -21.41,-80.1 l -20.36,-34.6 -20.36,-29.25 c 0.86,-15.29 39.57,-22.08 70.54,-23.32 l 13.19,23.32 -4.78,34.03 3.54,8.41 c 36.99,-0.48 19.11,50.56 26.28,72.83 2.01,28.68 67.48,87.27 103.99,118.9 21.8,18.89 13.47,86.07 18.59,112 3.51,17.76 8.1,38.66 13.88,55.54 7.33,21.38 24.2,38.72 31.76,60.78 -0.85,-21.83 -5.3,-43.51 -13.1,-63.92 -2.6,-6.79 35.04,-34.44 40.55,-37.92 14.23,-8.99 30.49,-14.28 38.51,-30.32 10.41,-16.82 19.11,-31.83 23.89,-43.01 l 47.79,-154.08 v -87.26 c 2.2,-6.98 8.99,-7.94 17.97,-6.02 l 53.14,35.93 c 3.25,11.47 -3.44,23.42 -17.39,35.75 l -13.38,3.73 1.53,22.65 c 6.78,3.92 10.8,10.61 13.09,19.12 -9.56,23.03 -21.12,45.88 -42.44,67.48 -10.3,37.74 -17.36,79.83 -44.48,110.08 -5.55,6.19 -11.9,12.04 -14.96,19.77 -2.96,7.49 -2.46,15.83 -2.2,23.88 1.55,48.01 -7.03,96.32 -25,140.87 23.12,-19.59 37.8,-48.82 39.71,-79.06 1.38,-21.78 -3.54,-43.97 0.99,-65.32 6.17,-29.11 25.17,-36.36 44.67,-54.03 15.54,-14.07 22.42,-33.12 43.73,-41.16 12.7,-4.79 26.69,-4.52 40.03,-7.05 16.53,-3.14 32.09,-10.61 48.79,-12.74 26.06,-3.31 53.5,7.7 70.04,28.12 -39.57,-8.41 -81.75,-4.01 -118.74,12.37"
         style="fill:#000000;fill-opacity:1;fill-rule:nonzero;stroke:none"
         transform="matrix(0.13333333,0,0,-0.13333333,0,666.66667)" />
      <path
         id="path5"
         d="m 4493.96,3961.26 c 1.3,-10.95 3.48,-21.81 6.8,-32.35 -2.04,10.79 -4.15,21.66 -6.8,32.35"
         style="fill:#000000;fill-opacity:1;fill-rule:nonzero;stroke:none"
         transform="matrix(0.13333333,0,0,-0.13333333,0,666.66667)" />
      <path
         id="path6"
         d="m 4744.99,3876.37 c -16.48,-2.67 -33.33,-5.33 -49.8,-2.6 -28.43,4.72 -51.85,24.99 -68.8,47.89 -16.96,22.9 -29,48.96 -45,72.52 -19.18,28.25 -44.05,52.76 -72.75,71.7 -0.19,0.13 -0.39,0.26 -0.59,0.39 -17.77,11.64 -38.36,21.35 -59.59,19.21 -7.73,-0.78 -15.37,-3.14 -23.13,-2.6 -20.89,1.43 -34.78,29.49 -48.92,42.55 -26.88,24.82 -60.75,42.11 -96.72,50.01 -29.73,6.54 -59.29,2.83 -89.44,5.31 -32.89,7.04 -65.58,16.32 -96.52,29.46 -8.76,3.72 -67.07,25.45 -48.71,37.83 5.88,3.96 13.77,2.55 20.71,0.98 -27.18,32.32 -58.17,61.54 -92.17,86.89 9.34,7.57 24.51,6.87 33.08,-1.52 -13.1,24.47 -35.49,44.02 -61.77,53.93 10.81,6.81 25.43,7.33 36.72,1.3 -14.02,30.18 -45.06,52.08 -78.67,55.49 4.39,5.48 10.85,9.31 17.82,10.59 -7.81,2.57 -16.35,3 -24.39,1.23 5.95,4.62 13.69,6.96 21.26,6.43 -24.18,10.42 -48.37,20.83 -72.55,31.24 -15.31,6.59 -31.42,13.32 -48.08,11.97 9.63,6.35 21.14,9.91 32.74,10.13 -21.53,13.49 -50.23,15.16 -73.24,4.28 4.03,3.23 8.06,6.47 12.09,9.71 -13.91,-1.67 -27.54,-5.55 -40.21,-11.44 7.71,4.45 15.43,8.9 23.14,13.36 -41.3,8.87 -85.22,5.62 -124.69,-9.23 -18.99,-7.15 -27.12,-17.7 -29.83,-36.65 -8.63,9.04 -17.67,17.5 -28.02,24.67 -7.51,5.2 -16.06,9.9 -25.24,9.56 1.66,-7.21 3.7,-14.32 6.1,-21.32 -24.78,15.84 -50.13,30.84 -76.1,44.73 19.56,-30.74 49.97,-53 79.67,-74.51 2.01,-1.46 4.01,-2.91 6.02,-4.36 -0.57,-0.92 -1.23,-1.79 -1.97,-2.58 -42.43,-45.4 -78.48,-86.94 -93.36,-104.34 0.02,0.03 0.03,0.04 0.05,0.06 9.67,11.52 -24.82,-18.34 -31.4,-31.74 -3.53,-7.2 -4.9,-15.22 -6.22,-23.11 -1.71,-10.12 -3.41,-20.25 -5.11,-30.38 -0.62,-3.65 -1.1,-7.83 1.34,-10.66 4.86,-5.62 16.09,-0.51 20.86,-6.21 1.69,-2.02 2.01,-4.92 3.79,-6.86 1.66,-1.81 4.26,-2.45 6.72,-2.71 13.54,-1.47 26.7,5.39 36.93,14.21 25.57,22.07 46.87,56.31 83.08,61.72 7.76,1.16 15.66,0.76 23.51,1.01 23.2,0.7 46.2,7.1 66.34,18.44 24.13,13.59 37.15,4.07 55.93,-13.46 14.07,-17.84 26.26,-34.57 33.52,-48.35 -3.15,-12.74 -7.86,-23.15 -15.71,-28.81 l -81.71,55.56 c -6.02,2.89 -15.24,4.18 -25.14,5.14 -7.97,0.11 -16.01,-2.01 -24.1,-5.14 l -23.39,-17.15 c -34.81,-14.14 -66.1,-27.87 -87.65,-40.46 -8.81,-3.89 -16.26,-8.94 -22,-15.44 l -7.33,-21.6 c -9.75,-3.94 -18.2,-12.46 -26.19,-22.63 -7.8,-11.76 -12.1,-26.35 -13.62,-43.21 9.97,-9.29 25.2,-8.95 44,-2.06 10.78,7.34 19.5,15.09 24.09,23.66 l -9.25,26.92 c 7,9.48 17.39,12.55 29.86,11.66 -3.73,4.41 39.6,43.21 83.1,48.87 14.14,1.78 27.8,1.3 40.86,-2.06 13.77,-9.49 25.71,-21.07 35.61,-34.97 15.33,-21.53 34.14,-32.49 52.32,-50.2 -4.92,16.24 -6.4,33.28 -3.35,50.01 -6.22,-34.13 41.09,-70.2 5.97,-87.49 -14.45,-7.11 -41.31,-3.06 -57.93,-7.53 -16.67,-4.48 -32.52,-11.21 -47.29,-20.02 -15.06,-9.39 -25.45,-21.26 -30.38,-36.01 -0.88,-23.91 6.56,-74.82 13.62,-124.48 5.67,-14.1 16.06,-26.58 29.33,-38.06 5.48,-10.11 8.82,-19.68 6.29,-27.78 4.92,-17.68 16.88,-29.06 30.38,-39.09 19.97,11.01 21.06,38.23 15.71,70.98 -14.11,4.42 -29.02,8 -32.3,14.23 1.97,10.33 2.88,20.15 -1.05,27.61 -4.01,7.89 -8.56,14.85 -14.84,18.86 -2.36,24.16 -4.19,47.43 0,60.7 6.15,13.77 12.55,26.93 21.65,33.09 14.76,3.22 29.85,3.21 45.4,-1.2 l 38.75,-9.26 c 27.97,0.73 52.22,3.72 72.29,9.26 l 40.85,-24.69 c 51.24,-39.7 112.28,-64.97 175.49,-79.62 33.27,-7.71 69.67,-7.58 102.05,-17.3 14.41,-4.33 17.47,-10.94 20.33,3.82 1.64,8.48 -2.22,20.75 -2.19,29.69 0.02,7.21 2.47,16.03 1.45,23.03 5.97,-40.78 23.37,-74.34 52.43,-103.4 27.28,-27.27 58.86,-49.73 79.94,-82.55 l 101.61,-92.59 c 3.14,-57.35 48.97,-76.9 46.09,-103.56 -0.64,-28.25 2.1,-52.61 11.53,-69.27 l 19.9,-40.12 c -0.91,-15.64 1.7,-31.44 6.28,-47.33 l 31.43,-45.26 c 8.72,0.13 16.13,1.7 20.95,6.17 10.25,8.9 17.22,20.13 22,32.92 v 30.87 c -13.55,10.29 -23.42,20.4 -24.88,30.09 -13.74,0.65 -25.84,2.48 -28.54,11.06 1.03,14.78 -0.53,31.72 -4.19,50.41 -9.4,0.89 -12.7,4.19 -11.53,9.25 l -4.19,21.61 c 7.88,-5.39 16.63,-7.71 26.19,-7.2 l 8.38,-12.35 c -3.57,-15.87 7.51,-30.69 22,-45.26 4.96,-4.51 10.64,-5.06 16.76,-3.09 l 25.14,47.32 c -9.09,6.91 -16.07,14.96 -19.9,24.69 l -18.86,6.95 c -5.26,23.37 -19.25,47.17 -38.76,71.24 -5.61,10.89 -9.26,21.86 -10.47,32.92 1.08,22.78 -1.56,45.42 -8.38,67.9 -32.69,12.35 -58.64,29.84 -77.52,52.72 -7.15,14.88 -8.8,29.55 -4.19,43.98 l 20.95,61.73 c 8.85,11.9 15.25,24.08 14.66,37.03 -1.38,22.93 -10.64,45.13 -25.14,66.88 31.03,0 57.11,-21.75 71.28,-47.63 7.26,-13.26 11.95,-27.58 15.59,-42.24 -1.59,13.34 -1.82,26.82 -0.36,40.17 12.62,-45.45 26.35,-92.88 59.31,-127.1 -12.7,19.31 -22.32,40.58 -28.38,62.78 15.89,-21.72 31.78,-43.43 47.67,-65.15 -14.76,26.26 -29.51,52.52 -44.26,78.78 16.83,-19.34 26.78,-43.64 43.04,-63.44 26.65,-32.45 70.42,-50.54 112.68,-46.57 -18.58,5.61 -34.94,18.03 -45.14,34.27 26.04,-14.9 56.47,-22.3 86.58,-21.08 21.9,0.9 46.44,8.51 55.35,28.18 -11.82,-1.91 -23.64,-3.82 -35.46,-5.73"
         style="fill:#000000;fill-opacity:1;fill-rule:nonzero;stroke:none"
         transform="matrix(0.13333333,0,0,-0.13333333,0,666.66667)" />
      <path
         id="path7"
         d="m 488.145,2460.42 5.777,-5.97 c -1.457,0.28 -2.918,0.7 -4.375,1.4 -0.371,1.65 -0.93,3.05 -1.402,4.57 z m 949.635,-175.7 c -6.34,35.8 -39.91,68.69 -27.68,102.93 3.32,9.32 9.87,17.35 12.3,26.93 4.18,16.54 -4.61,33.17 -9.67,49.46 -12.29,39.58 -6.53,81.43 -10.94,122.25 -1.14,10.56 -2.96,21.04 -5.95,31.4 -14.92,51.7 -51.36,69.38 -99.22,90.7 -22.66,16.78 -51.05,27.92 -87.71,30.94 -51.95,-16.64 -111.18,-27.96 -176.67,-34.69 -24.41,-9.76 -52.849,-9.64 -82.494,-6.56 l -101.25,27.19 c -18.039,-1.98 -34.949,-5.75 -50.871,-10.79 -29.758,-2.41 -58.937,-11.97 -84.137,-27.99 1.95,7.6 3.899,15.2 5.848,22.81 -26.496,-10.54 -47.754,-33.48 -56.238,-60.71 -1.996,6.52 -3.989,13.04 -5.985,19.57 -1.191,-9.2 -2.386,-18.39 -3.582,-27.58 0.719,7.2 -1.859,14.66 -6.863,19.88 -3.473,-12.05 -8.57,-23.63 -15.105,-34.33 2.066,10.09 4.132,20.19 6.199,30.29 -17.149,-14.09 -34.293,-28.17 -51.438,-42.25 -13.562,-11.14 -28.574,-26.15 -24.75,-43.28 -2.613,8.93 -2.613,18.61 -0.004,27.54 -14.84,-14.37 -25.285,-32.57 -35.527,-50.51 -14.395,-25.19 -28.785,-50.39 -43.18,-75.58 -8.281,13.1 -21.633,19.58 -35.707,25.11 0.383,-29.49 9.867,-52.47 28.258,-69.08 0.059,-4.43 -0.191,-8.67 -0.617,-12.78 -31.668,-10 -83.067,-24.08 -107.297,-32.54 18.953,-4.51 57.988,-2.96 87.941,-1.25 -4.55,-4.05 -7.382,-9.16 -8.285,-15.45 1.461,-11.18 4.094,-21.9 13.082,-30.09 l 1.047,-37.42 -14.129,-83.21 c -0.496,-17.48 8.074,-31.92 23.551,-34.28 l 45.531,0.52 c 17.309,4.97 17.129,19.04 15.7,33.76 0,0 7.82,17.47 7.851,17.53 9.574,21.38 34.715,42.58 49.52,60.74 9.281,11.38 16.621,18.06 14.472,34.23 -1.363,10.27 -9.125,18.79 -8.929,29.33 0.074,4.16 1.214,8.25 2.906,12.2 24.992,18.27 59.539,42.75 88.59,42.73 22.09,-0.02 42.265,-14.25 64.351,-14.48 13.211,-0.14 40.442,-90.33 44.211,-101.47 2.481,-7.33 4.863,-15.01 3.844,-22.68 -0.844,-6.37 -3.961,-12.17 -5.992,-18.26 -7.512,-22.52 0.129,-46.89 1.824,-70.57 3.43,-47.77 -19.586,-94.3 -50.152,-129.04 19.918,-20.43 44.66,-17.07 72.187,0 l -10.312,30.94 c 3.668,10.11 15.8,15.91 25.625,23.12 -3.399,32.83 -2.442,68.95 0,112.5 l 16.25,28.75 c -3.989,16.32 -12.575,42.09 -9.063,60.63 l 5.625,15.94 c 17.109,-35.21 22.258,-74.88 25.938,-105.32 21.254,-28.76 37.664,-72.35 45.312,-123.43 6.383,-11.58 4.137,-23.47 -5.625,-35.63 -14.285,-14.02 -20.969,-27.04 -22.5,-39.37 20.594,-8.06 41.207,-11.66 61.875,-5.63 14.402,8.03 21.137,18.88 16.875,33.75 l -19.281,16.14 c -3.777,14.08 0.965,6.9 10.844,14.17 2.351,29.31 -21.102,103.35 -38.879,144.99 -3.899,9.14 1.894,29.51 2.519,39.42 1.102,17.46 -0.695,34.49 -0.433,51.84 0.386,26.11 -2.532,52.52 -0.352,78.26 0.199,2.35 0.477,4.9 2.078,6.64 1.957,2.13 5.188,2.34 8.078,2.32 39.282,-0.19 77.365,-15.18 116.655,-15.39 25.99,-0.13 51.35,6.31 75.63,15.11 32.85,11.91 63.56,32.82 94.57,48.72 -11,-10.52 -25.83,-21.49 -31.28,-35.65 4.78,12.42 30.46,-34.34 30.9,-35.39 7.67,-18.24 8.52,-38.35 12.67,-57.51 4.78,-22.03 15.57,-38.71 24.09,-58.98 7.81,-18.57 7.2,-33.63 0,-45.94 -4.16,-37.8 -19.57,-71.96 -38.44,-105 l -48.75,-58.12 c 7.01,-17.88 26.28,-19.36 47.82,-17.82 l 17.81,13.13 c 2.85,5.96 4.14,11.52 0.94,15.94 l -5.63,13.12 32.81,14.53 c 1.89,0.84 7.63,38.6 9.01,43.08 5.26,17.04 13.77,33.36 17.09,50.72 7.07,36.98 -4.55,74.43 -16.19,109.12 14.32,-19.84 24.58,-42.59 29.97,-66.46 5.71,-25.31 -5.82,-54.64 -11.39,-79.58 -5.43,-24.33 -10.87,-50.24 -22.86,-72.35 0.52,-11.19 -4.57,-21.22 -11.25,-30.93 l -39.38,-51.57 c 19.65,-15.19 46.74,-11.19 79.69,2.35 6.77,9.02 7.55,24.51 -0.94,36.09 0.48,14.74 9.11,22.17 25.79,28.6 5.29,42.85 20.01,87.92 22.53,130.32 1.07,17.95 -0.43,27.6 7.12,45.91 6.1,14.76 15.47,30.75 8.81,47.05 -3.25,7.94 -9.86,13.93 -15.16,20.68 -23.28,29.61 -20.11,72.11 -9.5,108.25 10.61,36.13 27.59,71.23 28.47,108.89 8.07,-38.39 -8.55,-77 -19.92,-114.54 -11.37,-37.54 -16,-82.91 10.55,-111.79 9.17,-9.97 22.41,-19.18 21.97,-32.72 -0.22,-6.91 -4.18,-13.05 -6.57,-19.53 -10.74,-29.12 10.49,-59.44 30.4,-83.24 -10.46,21.3 -15.52,45.23 -14.55,68.93 10.78,-13.04 18.25,-28.8 21.53,-45.41 18.41,29.26 37.59,62.14 31.57,96.18"
         style="fill:#000000;fill-opacity:1;fill-rule:nonzero;stroke:none"
         transform="matrix(0.13333333,0,0,-0.13333333,0,666.66667)" />
      <path
         id="path8"
         d="m 3167.15,2348.1 c -24.62,-23.49 -64.33,-29.42 -94.74,-14.16 -16.28,8.17 -31.94,22.14 -49.93,19.29 -9.42,-1.5 -17.85,-7.62 -27.38,-7.84 -11,-0.25 -20.75,7.58 -26.69,16.84 -22.05,34.39 -36.21,63.04 -67.61,91.32 -13.18,11.88 -27.79,23.67 -43.63,31.79 -2.95,1.51 -21.57,5.7 -36.17,8.41 -7.32,9 -15.21,17.66 -23.79,25.87 -31.44,30.06 -72.91,36.51 -115.71,42.38 -35.5,10.93 -57.76,34.78 -75.24,63.28 -32.22,51.16 -47.15,92.43 -49.6,126.54 -4.57,19.1 -19.76,46.2 -35.7,58.03 -6.34,4.7 -14.43,3.42 -20.48,7.66 -3.83,2.69 -16.46,19.72 -19.07,19.96 11.4,-1.04 22.8,-2.09 34.2,-3.13 -13.14,9.2 -24.5,20.94 -33.26,34.38 10.96,-3.34 21.92,-6.67 32.88,-10 -15.22,9.73 -21.82,28.63 -24.25,46.54 -2.43,17.9 -1.81,36.39 -7.33,53.59 -8.95,27.85 -34.87,49.47 -63.88,53.28 7.36,4.29 16.2,5.96 24.62,4.67 -14.5,5.53 -29.01,11.06 -43.51,16.59 8.77,4.91 19.25,6.69 29.15,4.96 -17.98,6.99 -32.08,21.15 -48.43,31.38 -16.36,10.23 -38.25,16.23 -54.46,5.77 4.06,4.59 8.12,9.18 12.18,13.77 -13.25,-1.53 -26.5,-3.05 -39.75,-4.57 4.27,4.41 8.53,8.82 12.79,13.23 -19.2,3.65 -39.8,-0.75 -55.82,-11.94 0.43,7.23 5.43,13.98 12.21,16.51 -21.1,-1.03 -42.63,-2.15 -62.33,-9.78 -19.71,-7.64 -37.62,-23.06 -42.61,-43.59 -1.97,9.35 -2.02,19.1 -0.15,28.46 -8.45,-13.12 -15.2,-27.34 -20,-42.19 0.67,9.69 1.35,19.38 2.03,29.07 -26.29,-29.27 -30.32,-65.35 -47.12,-98.83 -11.4,18.52 -22.65,35.52 -42.4,46.12 1.57,-31.05 10.16,-53.07 21.67,-75.25 l -10.73,-8.42 13.58,-20.65 c 0.19,-0.29 0.25,-0.7 0.42,-1.02 -33.56,-19.48 -67.34,-38.57 -101.48,-56.99 18.12,8.75 38.09,12.76 57.53,17.97 15.06,4.04 29.9,8.88 44.48,14.42 -1.06,-6.92 -2.27,-13.59 -2.03,-18.12 0.8,-15.28 4.41,-33.36 11.91,-46.9 15.59,-28.09 20.49,-62.94 20.52,-100.89 12.45,-16 29.84,-27.41 58.14,-28.64 17.4,7.52 26.02,18.92 26.79,33.77 -13.86,18.24 -12.72,44.8 -4.56,75.24 0.86,3.2 21.76,13.3 25.56,17.23 6.9,7.11 11.98,15.41 14.96,24.86 6.88,21.77 1.13,48.26 -13.39,65.67 7.34,-2.31 12.73,-8.86 15.54,-16.02 2.81,-7.17 3.43,-14.97 4.02,-22.64 42.32,-11.42 0.32,-94.84 -9.92,-115.77 -9.92,-20.27 -8.93,-63 -20.55,-78.42 -11.67,-15.51 -48.08,-13.1 -65.81,-11.71 l -71.82,18.81 -34.21,-27.36 c -11.99,-14.57 -19.92,-30.41 -17.1,-49.59 -3.42,-56.44 -50.57,-105.39 -41.04,-125.41 13.64,-10.57 6.45,-52.71 0,-69.55 l 16.53,-43.89 c 5.14,-11.21 15.04,-2.51 21.09,4.56 18.06,16.19 32.75,32.87 35.34,51.3 5.47,8.12 3.25,15.74 -7.41,22.81 -16.96,4.68 -31.04,9.86 -29.64,17.67 l 1.71,14.25 h 13.68 c 5.92,50.48 10.85,101.68 44.47,131.68 10.05,7.99 21.35,8.12 33.07,5.69 24.73,-27.54 55.57,-49.13 89.35,-63.99 33.32,-14.66 73.3,-11.77 104.85,-29 -0.77,0.42 -38.85,-39.06 -44.34,-42.92 -20.26,-14.24 -43.88,-24.54 -66.65,-33.95 -3.54,-18.63 -4,-35.55 2.85,-48.46 4.45,-12.95 14.53,-23.62 26.22,-33.63 l 5.13,-85.5 c 3.89,-25.59 14.56,-38.52 30.79,-41.05 6.49,-12.35 6.73,-22.71 5.13,-32.49 l 51.3,-37.62 c 15.78,11.41 21.63,35.31 11.97,78.66 -3.28,13.3 -16.28,16.61 -35.91,20.53 l -11.97,-3.99 c 6.42,4.87 10.9,13.34 10.26,31.35 -30.76,5.36 -37.87,45.99 -46.17,87.21 0,0 14.79,38.7 14.82,38.76 4.79,12.53 54.72,21.03 66.24,23.79 29.36,7.03 58.69,7.99 88.55,1.51 -20.66,-2.65 -41.01,-7.65 -60.53,-14.88 13.19,4.88 29.54,-18.65 36.84,-25.14 16.79,-14.94 36.45,-27.21 55.63,-38.85 40.71,-24.68 82.9,-31.12 129.95,-32.92 -29.14,-4.19 -58.76,-5.08 -88.11,-2.66 -2.96,0.24 31.03,-87.61 35.82,-97.21 15.73,-31.48 44.93,-48.66 74.78,-66.16 17.66,-30.63 -54.07,-81.71 -106.03,-128.26 -5.59,-11.31 -7.11,-22.06 -2.28,-31.92 l 0.53,-44.11 c 5.3,-16.46 14.36,-31.3 29.11,-43.67 17.63,8.1 33.63,34.2 31.35,62.13 l -10.83,13.11 c -8.17,1.08 -10.73,4.93 -3.42,13.68 l 15.78,5.46 c 0.73,22.14 8.28,38.92 21.84,50.97 l 94.06,85.51 12.17,18.26 c 6.56,9.84 4.13,23.11 -5.49,29.98 l -42.59,30.42 c -17.18,18.64 -16.62,36.17 -5.13,53.02 10.57,15.44 19.18,4.76 33.73,9.22 6.01,1.85 37.31,42.95 46.05,24.16 -10.34,22.23 -25.38,42.25 -43.86,58.36 55.28,-16.49 69.75,-78.36 94.42,-123.18 14.36,-26.08 37.58,-45.49 53.69,-70.28 13.68,-21.05 18.08,-45.9 29.73,-65.87 0.04,-0.08 11.97,-20.52 11.97,-20.52 16.57,-16.55 15.55,-52.51 22.23,-87.79 v -35.34 c 1.18,-16.29 7.2,-22.59 15.22,-24.75 l -1.54,-27.69 c -8.03,-5.67 -11.16,-14.37 -11.97,-24.52 l -9.69,-20.52 c 20.67,-23.2 39.64,-30.96 69.35,-4.47 l -6.65,36.97 c -9,5.31 -10.56,26.79 -10.9,41.89 8.42,0.23 8.49,10.63 9.41,24.16 -2.14,11.13 -5.49,15.72 -15.18,21.37 -12.17,34.6 -19.93,68.8 -20.95,102.4 0.63,19.78 1.5,40.18 1.5,50.44 -2.29,8.06 -7.54,15.71 -13.47,26.51 2.31,22.93 5.72,40.41 2.83,62.79 -4.32,33.48 4.12,62.53 3.34,94.93 -1.04,42.53 -11.04,83 -29.44,119.55 16.19,-20.14 26.14,-47.09 31.88,-72.77 5.42,-24.26 8.99,-49.07 15.4,-73.04 7.06,-26.4 23.75,-44.54 34.29,-68.4 -8.88,20.1 -11.82,42.78 -8.35,64.48 25.67,-57.88 86.28,-98.53 149.57,-100.32 -11.98,9.28 -26.02,15.9 -40.8,19.22 12.71,-3.53 26.48,-3.21 39.02,0.91 -17.53,4.83 -34.68,11.07 -51.22,18.62 49.12,-6.55 101.04,17.01 128.44,58.31 -9.71,-4.47 -19.42,-8.93 -29.13,-13.4 20.84,18.88 36.5,43.41 44.87,70.25"
         style="fill:#000000;fill-opacity:1;fill-rule:nonzero;stroke:none"
         transform="matrix(0.13333333,0,0,-0.13333333,0,666.66667)" />
      <path
         id="path9"
         d="m 1159.03,545.262 c -13.23,-18.782 -30.24,-34.422 -47.48,-49.43 -5.74,-5 -11.53,-10.062 -15.96,-16.242 -7.83,-10.93 -11.19,-25.09 -21.15,-34.11 10.31,-5.628 21.47,-9.73 32.99,-12.089 2.57,-0.532 5.29,-0.969 7.76,-0.102 9.03,3.172 5.69,18.063 12.71,24.551 8.84,8.172 23.57,-3.899 34.85,0.308 -1.46,11.942 -2.63,25.172 4.38,34.954 5.83,8.136 15.92,11.769 23.29,17.847 -20.86,6.403 -29.62,12.321 -31.39,34.313"
         style="fill:#000000;fill-opacity:1;fill-rule:nonzero;stroke:none"
         transform="matrix(0.13333333,0,0,-0.13333333,0,666.66667)" />
      <path
         id="path10"
         d="m 1657.42,1120.55 c 22.19,7.19 48.36,11.28 65.86,27.7 -22.82,-9.89 -49.65,-10.1 -72.62,-0.57 24.77,-1.03 49.76,3.98 72.21,14.48 -29.19,-11.08 -65.06,-1 -84.21,23.67 17.07,-16.81 42.82,-24.28 66.23,-19.21 23.41,5.07 43.76,22.52 52.35,44.88 -6.08,-15.83 -48.95,-17.21 -61.82,-15.52 -22.51,2.96 -43.75,16.41 -62.41,28.62 8.02,0.79 16.04,1.57 24.06,2.36 -47.95,24.31 -111.17,13.71 -148.58,-24.9 2.72,16.73 8.67,32.93 17.43,47.45 -17.89,-11.11 -32.43,-27.52 -41.32,-46.61 -15.76,-33.86 -25.93,-65.79 -70.2,-69.26 -17.63,-1.38 -35.4,3.55 -52.95,1.36 -9.36,-1.16 -18.29,-4.28 -27.26,-7.28 -47.29,48.31 -108.02,76.19 -180.13,54.97 -39.87,-11.73 -80.43,-27.46 -121.65,-22.2 -51.812,6.6 -94.887,45.26 -146.383,53.95 -16.812,2.84 -33.914,2.22 -50.797,4.27 -7.257,0.89 -33.882,14.07 -38.199,12.86 8.61,2.41 17.219,4.81 25.828,7.21 -15.179,4 -30.359,7.99 -45.543,11.99 16.524,1.35 33.047,2.71 49.567,4.06 -10.883,5.36 -21.223,11.88 -32.535,16.24 -11.317,4.37 -24.067,6.46 -35.563,2.6 8.824,3.5 17.645,7.01 26.469,10.52 -12.414,-1.22 -24.981,-0.92 -37.324,0.9 9.976,2.32 19.949,4.65 29.925,6.98 -10.285,5.93 -20.699,11.92 -32.117,15.15 -11.422,3.24 -24.136,3.49 -34.75,-1.82 4.41,6.13 10.114,11.2 16.16,15.59 -18.531,5.05 -66.371,17.85 -82.429,3.38 5.449,4.91 10.894,9.82 16.344,14.73 -9.622,0.1 -19.243,0.21 -28.86,0.31 l 16.637,12.93 c -13.086,8.23 -26.367,16.55 -41.164,21.03 -14.793,4.48 -31.539,4.72 -45.039,-2.81 6.117,6.27 12.23,12.53 18.351,18.79 -14.828,0.53 -29.789,-3.67 -42.172,-11.83 5.946,6.32 11.891,12.63 17.84,18.95 -31.004,6.17 -61.586,9.37 -88.726,-9.26 -7.375,6.1 -12.801,15.49 -21.422,19.94 -5.731,2.96 -36.949,0.1 -36.715,-0.17 5.637,-6.69 11.277,-13.38 16.918,-20.06 2.234,-2.66 4.516,-5.38 5.719,-8.64 3.269,-8.85 3.965,-24.18 1.875,-36.46 -45.617,9.66 -91.321,18.91 -137.153,27.48 40.75,-17.56 81.231,-35.74 121.547,-54.27 -6.027,-5.85 -12.054,-11.68 -14.156,-20.28 -1.43,-5.84 -0.613,-11.97 -0.723,-17.99 -0.41,-21.85 -13.812,-43.92 -21.351,-64.13 -4.621,-12.38 -9.242,-24.76 -13.864,-37.14 -7.667,-20.55 -27.945,-39.55 -8.878,-58.96 18.238,-18.56 35.195,-19.33 59.711,-17.29 2.164,0.18 4.55,0.46 5.996,2.08 1.664,1.87 1.398,4.69 1.207,7.18 -2.707,35.07 33.105,61.28 63.129,71.25 13,4.32 28.035,4.97 38.07,14.3 3.5,3.25 6.098,7.34 8.648,11.38 6.852,10.83 13.7,21.66 20.547,32.48 -6.769,-10.7 -8.859,-37.37 -12.219,-50.23 34.356,-11.44 51.789,-42.2 67.821,-72.41 20.347,-38.36 36.16,-79.13 48.582,-120.7 6.41,-21.449 6.777,-43.031 4.558,-64.48 L 545.441,809.141 c -8.257,-8.512 -13.929,-32.551 -8.257,-42.911 36.863,-50.179 73.234,-100.238 85.32,-129.949 -0.25,-8.629 3.574,-14.301 13.809,-15.66 L 643.832,557 c 10.973,-21.699 32.426,-38.59 54.867,-54.871 l 17.629,90.133 -34.89,5.179 -4.071,62.391 c -36.617,25.027 -67.441,66.578 -94.195,119.719 21.723,12.679 43.855,24.691 66.523,35.601 14.586,7.02 39.028,14.86 48.434,29.09 2.211,3.348 3.344,7.278 4.441,11.149 2.844,9.968 5.688,19.949 8.532,29.929 1.543,-55.39 -6.227,-108.269 -24.489,-160.64 -8.383,-24.039 0.621,-44.02 26.633,-52.649 51.293,-11.09 98.637,-25.402 135.746,-47.34 16.278,-3.699 30.703,-5.3 39.332,-0.621 l 53.141,-20.84 c 22.687,-3.82 41.922,7.161 79.775,20.84 l -63.252,50.43 c -5.55,4.441 -13.687,2.34 -16.523,-4.07 l -6.902,-15.66 -45.747,8.511 c -5.793,7.149 -21.328,9.489 -44.507,8.008 0,0 -106.278,47.59 -106.278,47.602 11.774,19.871 25.211,38.308 36.207,58.761 9.516,17.7 16.211,38.508 27.227,55.239 13.476,20.468 40.539,32.179 46.051,56.058 -2.286,-15.398 -6.832,-30.449 -13.457,-44.539 2.074,4.41 94.722,-11.758 108.07,-12.18 40.676,-1.289 83.831,11.25 121.161,26.372 34.7,14.05 82.8,32.25 119.99,20.41 -16.95,-3.012 -33.54,-8.09 -49.27,-15.102 20.21,9 62.93,-94.75 68.45,-109.148 11.14,-29.012 6.83,-66.52 8.4,-97.77 l -2.94,-6.14 c 8.95,7.16 18.62,13.429 28.54,19.449 20.62,12.519 51.45,25.488 31.78,51.668 -13.45,17.89 -31.33,34.011 -45.24,51.59 11.44,-14.457 25.93,-27.918 42.74,-35.68 13.41,-6.188 31.26,-10.75 29.24,-30.629 -0.61,-6.031 -4.03,-11.41 -7.82,-16.148 -11.48,-14.391 -29.74,-30.133 -46.76,-37.571 -14.34,-6.269 -32.8,-5.121 -41.52,-20.801 -4.39,-7.89 -3.91,-17.48 -5.72,-26.328 -4.44,-21.722 -23.02,-40.992 -18.94,-62.793 6.12,-32.597 56.92,-41.121 62.71,-73.777 15,14.348 26.32,32.527 32.59,52.316 -7.6,4.434 -15.9,7.661 -24.49,9.543 2.68,7.02 5.36,14.051 8.04,21.071 -8.55,2.187 -17.1,4.367 -25.65,6.547 -4.72,1.211 13.93,34.582 16.1,37.703 8.85,12.758 21.35,22.718 34.89,30.136 16.62,9.122 34.48,13.082 52,19.692 6.72,2.531 37.94,11.039 40.49,16.558 8.14,17.633 14.67,35.262 9.61,53.641 -3.53,12.82 -22.6,28.59 -30.3,39.691 -10.53,15.18 -20.92,31.809 -24.95,50.09 -9.47,42.942 12.44,72.399 38.36,103.692 27.84,33.617 47,79.226 35.34,120.818 -0.52,1.82 -1.08,3.63 -1.71,5.44 -2.99,8.54 -7.25,16.5 -11.98,24.23 42.16,-0.49 85.16,11.89 119.83,33.17 30.36,18.64 72.86,14.58 99.13,-9.47 -6.95,20.3 -28.27,34.7 -49.7,33.58 25.24,2.93 51.63,-10.44 64.2,-32.53 -8.28,28.74 -35.78,50.86 -65.63,52.79 2.62,9.03 13.55,13.41 22.85,12.07 9.31,-1.34 17.39,-6.84 25.32,-11.89 21.5,-13.69 44.93,-25.23 70.15,-28.97 25.21,-3.74 52.5,1.1 72.24,17.23 -27.97,-7.71 -57.44,-9.91 -86.24,-6.43"
         style="fill:#000000;fill-opacity:1;fill-rule:nonzero;stroke:none"
         transform="matrix(0.13333333,0,0,-0.13333333,0,666.66667)" />
      <path
         id="path11"
         d="m 3224.52,910.27 c -2.84,49.179 -20.2,97.43 -49.35,137.13 -15.44,21.05 -35.08,40.33 -59.88,48.5 -9.71,3.2 -20.02,4.63 -29.33,8.86 -15.47,7.04 -28.17,19.81 -41.02,32.04 -7.25,6.91 -14.55,13.64 -22.42,19.08 -25.54,17.65 -57.35,35.37 -88.85,38.31 -37.68,3.51 -84.36,-5.25 -120.71,-15.18 -20.45,-5.58 -40.5,-12.99 -61.49,-15.92 -45.95,-6.42 -90.61,9.1 -133.84,22.52 -36.26,11.26 -92.87,34.77 -131.13,31.25 19.84,1.83 39.69,3.66 59.53,5.48 -38.64,27.33 -81.19,49.12 -125.96,64.49 12.55,1.65 25.09,3.3 37.64,4.95 -20.67,20.16 -48.44,32.88 -77.21,35.38 9.15,3.66 18.3,7.32 27.45,10.99 -14.13,-0.48 -28.33,1.47 -41.81,5.71 9.68,1.13 19.37,2.25 29.06,3.37 -21.19,24.02 -53.57,37.72 -85.56,36.19 10.27,3.09 20.55,6.17 30.82,9.25 -17.52,18.91 -40.42,31.31 -65.35,37.3 -18.55,4.46 -44.43,-1.49 -60.16,9.35 -6.46,4.45 -11.36,11.06 -18.33,14.64 -13.94,7.17 -36.77,3.94 -40.27,19.22 -5.5,-18.58 2.69,-40.33 19.07,-50.67 0.99,-2.48 0.58,-4.49 -0.67,-6.22 -35.54,26.54 -71.07,53.08 -106.61,79.61 4.14,-14.81 16.12,-25.87 27.32,-36.41 19.71,-18.53 38.32,-38.17 56.29,-58.39 -5.4,-7 -4.76,-17.86 -7.69,-26.71 -8.32,-25.19 -39.38,-49.09 -56.68,-68.06 -17.03,-18.67 -37.66,-35.26 -57.71,-50.61 -3.71,-2.84 -7.51,-5.78 -9.9,-9.8 -3.61,-6.09 -3.41,-13.67 -2.62,-20.71 1.21,-10.7 3.53,-21.27 6.91,-31.49 2.04,-6.16 5.9,-13.25 12.38,-13.31 27.1,-0.29 45.3,-11.92 70.9,9.36 16.81,13.97 35.98,25.07 56.46,32.69 5.5,2.05 11.14,3.85 16.98,4.43 9.46,0.94 18.9,-1.38 28.38,-2.03 27.38,-1.89 55.33,11.24 71.35,33.53 -2.12,-14.42 -9.61,-27.98 -20.68,-37.45 -1.5,-1.28 -3.12,-2.57 -3.86,-4.4 -1.4,-3.47 0.87,-7.24 3.01,-10.32 28.17,-40.61 37.85,-92.75 66.02,-130.86 13.15,-17.79 27.95,-34.61 37.79,-54.42 14.98,-30.151 18.87,-64.198 34.42,-94.221 14.4,-27.797 38.25,-44.43 64.32,-61.418 11.95,-82.27 11.59,-158.571 4.45,-233.899 -6.91,-37.05 -14.45,-74.433 -27.38,-109.922 -11.04,-30.32 -29.94,-49.968 -45.1,-75.96 -3.84,-6.579 -2.86,-16.59 3.96,-19.961 2.66,-1.317 5.74,-1.438 8.71,-1.438 24.59,0.02 49.13,7.149 69.9,20.32 -7.45,26.301 3.31,43.957 18.29,63.329 15.18,19.609 8.12,26.16 9.49,51.832 0.91,17.07 4.04,33.796 7.59,50.48 6.55,30.777 10.8,62.348 15.96,93.637 0.3,-17.918 -3.48,-59.34 12.61,-72.809 3.22,-2.711 7.35,-4.012 11.27,-5.551 12.17,-4.777 23.05,-12.269 33.81,-19.687 13.28,-9.16 27.98,-20.871 28.06,-37.012 0.02,-5.879 -1.93,-12.18 0.78,-17.41 2.8,-5.379 9.41,-7.348 14.07,-11.238 7.25,-6.051 18.42,-54.571 9.09,-58.871 15.93,7.351 30.9,16.781 44.4,27.98 6.06,5.02 12.31,11.539 11.78,19.391 -0.93,13.847 -21.67,19.949 -22.29,33.82 -0.29,6.219 3.83,12.328 2.33,18.367 -1.28,5.153 -6.17,8.43 -10.68,11.211 -21.93,13.539 -54.13,27.149 -67.73,50.231 -8.63,14.66 -8.98,32.578 -9.08,49.589 -9.43,0.45 -17.13,8.442 -20.24,17.352 -3.12,8.898 -2.59,18.609 -2.02,28.027 1.82,30.371 -7.48,95.7 22.76,115.262 12,7.758 27.68,3.899 41.7,1.098 56.27,-11.27 126.52,0 178.21,24.351 22.75,10.719 47.19,17.871 72.13,21.121 -18.71,-11.05 -37.42,-22.101 -56.14,-33.14 12.22,-12.309 26.02,-23.031 40.96,-31.832 17.92,-10.547 53.56,-29.867 56.64,-53.047 6.21,-46.66 -44.08,-103.68 -68.4,-138.59 -7.1,-23.23 -6.96,-49.863 -4.25,-77.703 -6.75,-17.418 -9.68,-34.449 -7.89,-50.988 l 57.55,31 c 26.58,11.39 -10.99,32.75 2.5,49.078 2.34,2.832 5.85,6.39 3.83,9.472 -0.88,1.34 -2.53,1.891 -3.99,2.559 -32.5,14.871 68.63,151.832 86.4,172.539 3.78,9.231 4.09,18.34 0.6,27.32 l -49.16,52.813 c -9.95,19.859 -9.02,34.379 -2.43,46.129 l 99.55,-133.539 41.27,-79.524 c 11.74,-38.886 20.52,-76.347 22.46,-110.468 l -4.23,-56.829 -37.65,-42.109 c 39.63,-10.441 72.88,-13.383 92.26,0 -8.77,16.617 -9.61,43.816 -7.28,75.27 7.53,15.808 9.81,30.027 10.32,43.699 -24.63,19.031 -35.55,86.918 -40.67,175.418 -29.34,41.07 -42.21,65.429 -57.46,110.273 -1.21,3.547 10.86,25.227 12.35,30.09 4.46,14.488 7.07,29.547 9.25,44.52 3.88,26.527 7.6,61.338 -1.55,87.058 14.34,-20.93 29.25,-43.63 29.07,-69 -0.13,-17.09 5.41,-38.121 2.23,-54.191 -1.97,-9.969 -5.74,-19.891 -4.56,-29.989 2.4,-20.691 24.65,-35.609 24.94,-56.441 0.13,-9.098 -3.81,-19.418 1.82,-26.578 7.09,10.59 10.43,23.66 9.28,36.359 7.68,-22.23 4.19,-47.769 5.7,-70.929 2.05,-31.332 10.02,-64.84 34.09,-85 -4.75,23.339 -9.5,46.668 -14.25,70.011 21.24,-28.621 37.13,-61.191 46.63,-95.55 18.23,62.847 -28.4,129.468 -15.57,193.64 8.7,-25.773 12.73,-53.113 11.84,-80.293 11.97,37.203 10.98,78.442 -2.78,115.02 9.75,-20.481 16.34,-42.457 19.46,-64.93 2.81,46.18 -8.37,93.133 -31.69,133.09 16.66,-13.758 29.06,-32.609 35.11,-53.359"
         style="fill:#000000;fill-opacity:1;fill-rule:nonzero;stroke:none"
         transform="matrix(0.13333333,0,0,-0.13333333,0,666.66667)" />
      <path
         id="path12"
         d="m 4504.01,2268.58 c -14.65,10.93 -24.23,28.41 -25.56,46.64 -1.2,16.5 5.91,52.68 -4.62,66.32 7.47,-9.69 14.95,-19.37 22.42,-29.05 2.02,18.28 -2.68,37.23 -13.01,52.45 -10.35,15.25 -26.15,26.96 -33,44.07 10.16,-5.14 18.97,-12.9 25.37,-22.32 -2.9,14.78 -6.07,30.18 -15.39,42.02 -6.14,7.8 -14.57,13.51 -21.05,21.04 -31.2,36.26 -8.29,83.76 -42.57,121.05 -21.04,22.89 -50.4,34.29 -84.37,39.37 -30.12,4.51 -51.75,-17.17 -82.4,-9.97 -19.56,4.59 -47.43,14.75 -64.21,26.43 -6.28,4.37 -40.64,52.25 -36.13,54.04 5.41,2.15 10.83,4.3 16.25,6.45 -18.2,13.93 -36.39,27.85 -54.59,41.78 4.04,1.04 8.07,2.08 12.11,3.12 -8.21,4.35 -16.42,8.7 -24.62,13.05 4.74,-0.66 9.47,-1.32 14.21,-1.99 -23.67,29.58 -47.34,59.16 -71.01,88.73 5.57,0.62 11.14,1.25 16.7,1.87 -7.82,14.63 -23.3,24.88 -39.82,26.37 3.77,1.35 7.53,2.7 11.3,4.04 -18.06,20.91 -39.03,36.07 -60.91,52.49 -24.84,18.65 -15.91,24.97 -28.32,51.84 -3.18,6.87 -19.5,22 -19.98,27.73 0.58,-6.9 -10.16,-52.42 -12.64,-52.54 -0.1,0 -26.57,-1.25 -26.57,-1.25 -1.55,11.22 -9.63,25.44 -18.43,40 -5.9,-15.62 -9.32,-32.13 -10.2,-49.55 -26.95,31.67 -56.52,61.1 -88.47,87.72 18.65,-36.56 39.16,-72.16 61.37,-106.67 -6.58,-8.27 -9.5,-17.92 -11.14,-28.06 h 28.12 c -14.89,-11.17 -29.16,-21.87 -37.5,-28.13 -3.28,-9.15 -1.76,-19.54 0,-30 -30,-42.5 -75.32,-69.43 -84.37,-99.37 -9.69,-32.19 0.86,-52.39 20.62,-52.5 2.27,-12.18 14.16,-20.4 30.32,-26.88 18.51,1.93 26.57,10.55 35.62,22.5 26.5,11.03 37.18,19.28 67.87,16.82 32.65,-2.63 66.19,11.81 86.73,37.32 -4.4,-20.92 -18.07,-39.7 -36.63,-50.31 9.66,4.83 55.14,-165.23 59.84,-179.45 -7.38,-41.47 -10.66,-82.1 -3.75,-120.63 18.43,-37.54 36.47,-66.16 65.63,-79.06 5.57,-13.84 54.28,-103.66 51.34,-109.13 10.09,18.75 17.36,39.01 21.49,59.89 -9.08,-53.85 -22.41,-104.36 -34.49,-157.3 -1.64,-7.2 -2.05,-14.66 -0.8,-21.94 15.17,-88.56 -23.37,-129.17 -11.92,-192.46 L 4021,1855.09 c 43.17,-7.36 74.34,-9.87 86.85,22.58 l -5.62,65.63 5.9,5.9 c 6.79,6.79 9.43,16.69 6.94,25.96 l -9.09,33.76 v 61.88 c 6.06,13.47 11.82,26.26 16.87,37.5 11.07,-6.94 16.56,-23.42 16.88,-48.75 -0.57,-20.93 -2.67,-40.48 -13.13,-52.5 l -1.87,-17.5 c 19.59,-6.49 37.7,-4.94 54.37,4.37 10.11,6.91 14,19.02 15,33.56 -12.71,14.81 -18.26,29.28 -15,43.32 l -2.09,34.75 -29.16,32.12 c -12.09,16.93 -16.66,32.24 -11.9,45.55 23.92,66.82 41.72,134.67 72.92,198.35 -2.92,-16.24 -5.84,-32.49 -8.77,-48.74 30.03,2.72 56.87,13.98 79.87,33.95 -11.33,-9.88 -19.76,-26.65 -32.92,-37.19 62.13,-31.17 27.75,-111.91 8.3,-160.67 -2.31,-19.08 -8.48,-26.12 0.63,-41.87 l -1.25,-71.25 c 2.92,-7.76 12.11,-8.14 23.75,-5.63 13.69,8.78 24.21,20.6 28.12,38.75 l -15,26.88 2.66,50.48 c 4.31,58.08 28.38,124.89 27.92,147.61 l -20.63,31.88 c 0,7.43 -2.15,20.52 1.39,27.05 7.43,13.72 33.24,9.96 23.08,32.05 -6.1,13.27 -13.77,25.8 -22.81,37.26 35.68,-19.86 35.42,-75.44 42.6,-111.17 3.36,-16.73 8.17,-36.1 22.81,-46.52 8.5,-6.05 18.63,-11.26 22.74,-20.85 3.95,-9.21 1.14,-19.82 2.31,-29.77 2.45,-20.93 17,-35.61 18.78,-58.77 0.34,-4.44 -0.53,-58.31 2.9,-57.38 8.38,-35.62 6.73,-66.32 -16.87,-86.25 21.57,-6.94 40.77,-8.05 56.25,0 l 1.87,31.88 -5.62,45 c 0,0 5.62,26.24 5.62,26.25 2.93,13.67 -11.99,47.94 -14.03,63.19 -3.12,23.43 -8.65,47.23 -11.33,70.35 -4.36,37.62 -9.62,84.48 -1.73,121.63 8.42,-24.7 7.51,-51.51 12.07,-77.21 4.56,-25.7 16.99,-52.81 41.16,-62.65 -10.06,17.42 -18.3,35.89 -24.56,55 10.01,-18.24 25.23,-39.27 45.83,-36.28"
         style="fill:#000000;fill-opacity:1;fill-rule:nonzero;stroke:none"
         transform="matrix(0.13333333,0,0,-0.13333333,0,666.66667)" />
      <path
         id="path13"
         d="m 3938.56,860.512 c 0.16,0.207 35.25,-32.032 38.57,-34.821 l 15,-43.203 1.8,-52.398 c 0,-2.301 0,-4.598 0.1,-6.801 -16.18,38.461 -34.55,74.012 -60,103.902 -7.56,8.848 -17.68,16.547 -26.4,24.231 26.33,18.687 50.53,49.66 79.66,62.93 15.81,7.207 33.94,6.91 51.26,5.449 -39.26,-5.992 -75.9,-27.711 -99.99,-59.289 z m -113.13,107.429 c 5.23,-6.511 5.45,-15.402 4.82,-23.89 1.78,18.98 10.03,25.219 20.6,30.359 -6.34,-23.078 -12.69,-46.16 -19.03,-69.238 -1.43,2.078 -2.81,4.187 -4.03,6.406 -9.37,17.082 -10.26,38.551 -2.36,56.363 z m 567.3,294.549 c 4.7,-14 11.6,-35 19.4,-58.1 22.3,-14.8 40.5,-10.9 56.2,3.8 19.7,17.6 32.8,35.9 31.2,55.61 -12.16,33.61 -19.77,67.51 -28.16,102.12 -6.25,25.77 -0.63,53.01 -5.51,78.19 40.13,26.03 77.73,55.99 111.97,89.41 -41.97,-18.79 -83.07,-39.52 -123.17,-62.02 -0.06,0.1 -0.11,0.2 -0.18,0.3 11.17,9.93 20.7,21.6 25.6,36.04 2.21,6.49 -0.75,52.35 -2.35,50.95 -22.7,-19.9 -41.4,-39.8 -51.3,-60 -10.5,4.5 -26.5,8 -35.6,8.1 13.1,14.2 16.5,44.2 18.1,76.9 -29.9,-14.2 -45.6,-41.9 -61.8,-84.4 -3.72,-1.71 -7.46,-3.63 -11.2,-5.71 l 0.09,0.16 c -23.76,6.36 -47.17,-10.15 -65.3,-26.77 -18.13,-16.61 -38.03,-35.57 -62.62,-35.31 10.59,-6.95 23.68,-9.99 36.25,-8.41 -11.34,-7.33 -24.59,-11.68 -38.07,-12.5 8.19,-5.84 18.59,-8.48 28.57,-7.25 -29.04,-5.75 -56.03,-21.34 -75.54,-43.6 -10.04,-11.46 -19.55,-25.53 -34.47,-28.57 13.71,-0.2 27.43,0.54 41.04,2.21 -24.73,-11.32 -46.67,-28.66 -63.4,-50.1 -10.01,-12.84 -19.3,-27.99 -34.72,-33.21 14.41,0.5 28.73,3.56 42.08,9 -15.65,-10.57 -31.3,-21.14 -46.95,-31.71 13,3.07 26,6.14 39,9.21 -29.29,-8.65 -53.3,-33.35 -61.09,-62.88 0.97,0.57 1.91,1.2 2.88,1.78 -2.16,-2.49 -4.25,-5.04 -6.21,-7.71 -12.85,-17.56 -20.72,-39.69 -38.68,-51.97 -31.39,-21.47 -75.23,-23.82 -107.66,-46.34 -2.74,-1.9 -5.14,-3.99 -7.34,-6.21 -16.39,-7.7 -31.47,-19.63 -44.98,-30.42 -10.25,-8.18 -20.51,-17.6 -24.3,-30.16 -2.71,-8.979 -1.8,-18.74 -4.35,-27.772 -5.56,-19.699 -26.18,-32.187 -32.18,-51.75 -6.01,-19.558 4.15,-40.168 15.07,-57.468 9.64,-15.258 20.31,-30.071 33.03,-42.801 l -6.55,-18.039 3.9,-37.301 c 1.2,-11.199 -0.8,-22.5 -5.7,-32.598 l -18.8,-38.902 c -3.3,-19 2.5,-34.699 13.2,-48.801 l -31.9,-50.597 c -4.8,-14.102 1.4,-23.301 13.1,-30 4.1,-20.301 -3.6,-37.102 -18.1,-51.801 l 28.1,-15.699 c 30,-11.2 39.7,2.898 35.6,25 l -10.6,42.5 4.4,39.398 c 1.3,39.203 4,76.102 13.1,103.102 6.38,18.918 4.5,37.851 9.88,57.14 7.54,27.078 20.23,52.739 37.28,75.098 -6.46,-15.399 -12.92,-30.797 -19.37,-46.207 -4.09,-9.762 -8.24,-19.774 -8.78,-30.34 -1.85,-36.441 44.12,-79.66 67.52,-102.98 14.03,-13.981 29.17,-27.602 46.09,-38.02 10.7,-6.594 26.34,-7.922 35.78,-13.992 -39.5,25.402 -71.3,53.601 -82.7,89.601 20.4,-35.402 48,-57.3 80,-71.101 -2.4,2.5 -41.4,42.402 -63.1,95 14.7,4.801 52.2,-58.699 58.8,-69.899 l -59.6,122 47,-59.601 c 2.4,-24.399 11.8,-42 23.7,-57.301 l 37.5,-50.598 -9.1,-19.101 c -6,-12.602 -4.9,-27.399 2.8,-39 l 10,-15 c -10,-21.301 -16.2,-41 -11.2,-56.301 h 75 l -27.2,51.602 c 7.6,16.5 7.2,37.199 1,60.898 l -29.1,70.301 c -5.3,17.902 -11,37.5 -18.8,63.801 -3.09,10.429 -1.34,44.441 0.17,55.691 0.29,2.117 0.71,4.359 -0.12,6.316 -0.78,1.864 -2.54,3.094 -4.2,4.231 -10.93,7.43 -21.85,14.859 -32.78,22.301 23.08,-12.629 71.71,-24.168 98.57,-16.95 -19.75,14.11 -35.21,34.129 -43.85,56.809 9.58,-12.387 21.13,-23.859 35.62,-29.809 38.15,-15.671 45.69,-37.07 63.79,-73.289 9.6,-43.699 23.5,-74.203 45,-80.601 0,0 25.98,-61.129 26.3,-61.891 2.78,-6.551 -8.61,-29.148 -7.3,-38.957 2.51,-18.82 7.42,-13.472 19.87,-21.754 8.9,-5.918 14,-6.808 19.7,-17.5 6.52,-12.226 4.28,-29.609 16.6,-38.566 4.55,-3.313 10.3,-4.453 15.88,-5.172 14.78,-1.879 54,1.648 62.16,18.211 9.59,19.461 -17.64,35.691 -32.35,41.578 -15.29,6.121 -32.13,11.992 -38.06,29.359 -1.99,5.813 -2.2,12.114 -4.17,17.934 -4.17,12.359 -15.58,20.977 -20.89,32.898 -5.51,12.411 -3.79,26.872 -7.78,39.852 -5.4,17.59 -20.63,30.66 -26.87,47.969 -6.53,18.09 -2.43,38.398 -7.03,57.078 -13.11,53.293 -8.46,102.383 11.28,154.25 45.03,-9.481 90.73,-6.649 136.37,-6.301 2.45,18.211 8.44,35.934 17.53,51.891 -4.71,-34.008 10.11,-74.457 -0.11,-106.418 -6.24,-19.531 -21.32,-43.571 -34.88,-58.75 -3.89,-4.36 -8.12,-8.5 -11.07,-13.539 -7.12,-12.203 -5.05,-29.051 4.82,-39.16 -10.7,-11.723 -30.04,-15.563 -35.68,-30.391 -5.18,-13.629 4.45,-28.082 13.93,-39.152 10.39,-12.149 23.08,-24.758 39.05,-25.227 1.33,-0.043 2.79,0.059 3.73,1 0.82,0.82 1.01,2.059 1.13,3.207 2.79,26.633 -4.17,58.699 15.94,80.652 22,27.098 35.9,69 46.9,116.2 23.8,19.398 38.9,48.898 48.8,84.398 6.4,15.301 2,27.199 -7.5,37.5 0,13.461 -64.74,42.891 -77.91,48.941 -0.28,0.13 -0.53,0.25 -0.77,0.36 -18.43,8.5 -37.78,17.77 -49.11,34.61 -6.38,9.49 -9.91,21 -18.09,28.99 -5.77,5.63 -13.4,9.03 -19.31,14.51 -29.82,27.63 -6.04,80.61 -0.74,113.47 1.01,6.24 25.07,68.72 25.69,67.98 -11.18,13.33 -19.62,28.93 -24.66,45.57 12.64,-12.7 25.28,-25.39 37.92,-38.09 11.95,-12 28.93,-22.63 41.98,-35.14"
         style="fill:#000000;fill-opacity:1;fill-rule:nonzero;stroke:none"
         transform="matrix(0.13333333,0,0,-0.13333333,0,666.66667)" />
      <path
         id="path14"
         d="m 3830.25,944.051 c -0.12,-1.27 -0.27,-2.473 -0.33,-3.871 0.12,1.281 0.24,2.57 0.33,3.871"
         style="fill:#000000;fill-opacity:1;fill-rule:nonzero;stroke:none"
         transform="matrix(0.13333333,0,0,-0.13333333,0,666.66667)" />
    </g>
  </g>
</svg>
